<svg width="90" height="34" viewBox="0 0 90 34" fill="none" xmlns="http://www.w3.org/2000/svg">
<g clip-path="url(#clip0_8_2)">
<path d="M84.7292 23.5202C82.8844 23.9194 79.3265 24.0524 79.3265 24.0524L83.8068 2.7621C83.8068 2.7621 84.2021 1.43146 82.3573 1.43146C80.5125 1.43146 75.2416 1.43146 75.2416 1.43146C75.2416 1.43146 75.9005 3.02823 75.3734 5.68952C74.8463 8.21775 71.552 24.7177 71.552 24.7177C71.552 24.7177 70.8932 28.0444 69.5754 29.6411L85.9151 29.5081C86.0469 29.5081 89.8683 21.5242 89.8683 21.5242C89.8683 21.5242 86.574 23.121 84.7292 23.5202Z" fill="black"/>
<path d="M59.429 29.2419C60.7467 28.8428 70.7614 24.9839 71.552 13.1411C72.2108 3.1613 63.1186 -1.09677 56.1347 1.03227C49.8097 3.02823 45.0659 7.95162 43.88 14.0726C42.694 20.1936 45.7248 24.0524 45.7248 24.0524C45.7248 24.0524 44.407 18.996 47.7013 13.0081C52.9722 3.29436 65.2269 5.4234 63.2504 14.2057C62.1962 18.996 57.9795 21.125 57.9795 21.125V20.9919L59.0337 16.0686L47.306 26.0484C53.4993 33.5 63.5139 33.3669 63.5139 33.3669C61.6691 32.0363 59.9561 29.7742 59.5608 29.2419H59.429Z" fill="black"/>
<path d="M42.6941 24.4516L37.555 14.7379C37.555 14.7379 45.7248 5.55646 47.4378 3.69355C49.1509 1.96372 50.0733 1.56452 50.0733 1.56452H41.3763C41.3763 2.09678 40.8493 2.49597 40.8493 2.49597L31.757 13.0081C31.757 13.0081 33.2065 5.55646 33.6018 3.42743C33.9971 1.56452 32.8112 1.43146 32.2841 1.43146C31.757 1.43146 25.3002 1.43146 25.3002 1.43146C25.6955 2.89517 25.432 5.15726 25.432 5.15726C25.432 5.15726 22.1377 21.9234 21.4788 25.1169C20.82 28.3105 19.634 29.5081 19.634 29.5081C19.634 29.5081 25.9591 29.5081 27.2768 29.5081C28.5945 29.5081 28.858 28.1774 28.858 28.1774L30.7028 17.6653L34.7878 25.7823C34.7878 25.7823 36.7643 29.9073 41.3763 30.5726C46.2519 31.2379 47.7014 30.0403 47.7014 30.0403C45.8566 29.5081 42.6941 24.4516 42.6941 24.4516Z" fill="black"/>
<path d="M14.0996 12.2096C11.0688 10.0806 10.0146 8.74996 10.6735 6.88706C11.2006 5.42335 12.7818 4.09271 15.6808 4.62496C18.3162 5.15722 20.8199 8.48383 20.8199 8.48383L22.2694 1.96367C17.6574 0.366899 14.4949 0.633028 13.1772 0.766092C11.8594 0.766092 4.48023 2.09674 3.16252 8.48383C2.10835 13.8064 5.53441 16.2016 8.30161 18.0645C9.22401 18.7298 13.0454 20.7258 11.9912 24.3185C11.5959 25.383 10.5417 26.1814 8.82869 26.1814C4.34846 26.3145 2.10834 21.5242 2.10834 21.5242L0 28.8427C10.0146 32.9677 18.7116 30.0403 20.0293 22.7217C21.0834 17.2661 17.3938 14.6048 14.0996 12.2096Z" fill="black"/>
</g>
<defs>
<clipPath id="clip0_8_2">
<rect width="90" height="33" fill="white" transform="translate(0 0.5)"/>
</clipPath>
</defs>
</svg>
